{
.appVersion = "3134";
.formatVersion = 3;
DisplayStrings = (
"revolutionising
nfts
lore
ideological
ioioioiiiiioiio
ghost

function myunca, b 
    return a  b

document.get
python ruby",
" nephilim
decard cain

primevil

jsx

nlhmua ceo bpdq rgftsz
ij vywkx

",
"abcdefghijklmnopqrstuvwxyz 
lorem ipsum",
"pq
i jji",
a,
"air-gas wickered duck-board outsit alphametics momentous salt-junk whirlybirds maligners unposted carburettor sabotaging shippers teer inexorably defilading letter-bomb avouchables runaround unbagged sensuously harmoniously ischemia mercerizing foxship sacrificing bonnily ferlied after-clap diluvialists unfigured contrarying prospering solaria plaster-work sueability boniness hilar iconoscopes gravel-pit half-binding wilier stichidium rubles transcribes confirmators salpinx salique rends dances

solaris",
"yyyyy
xxxxlx
lllllllll",
v,
eszebrausxsg,
d,
"&/sharp_corner",
queen,
i,
"
ligature",
"/.notdef a",
abcdefghijklmnopqrstuvwxyz,
" ",
",",
"\""
);
axes = (
{
name = Weight;
tag = wght;
}
);
date = "2023-05-27 06:07:57 +0000";
familyName = "As Above, So Below5 v";
featurePrefixes = (
{
automatic = 1;
code = "languagesystem DFLT dflt;
";
name = Languagesystems;
}
);
features = (
{
automatic = 1;
code = "feature ss01;
";
tag = aalt;
},
{
automatic = 1;
code = "sub b by b.ss01;
sub d by d.ss01;
sub f by f.ss01;
sub g by g.ss01;
sub h by h.ss01;
sub j by j.ss01;
sub k by k.ss01;
sub l by l.ss01;
sub p by p.ss01;
sub q by q.ss01;
sub t by t.ss01;
sub y by y.ss01;
";
labels = (
{
language = dflt;
value = LIG;
},
{
language = dflt;
value = LIGMA;
}
);
tag = ss01;
}
);
fontMaster = (
{
axesValues = (
0
);
guides = (
{
angle = 270;
pos = (840,563);
},
{
angle = 270;
pos = (770,563);
},
{
angle = 270;
pos = (490,560);
},
{
angle = 270;
pos = (420,563);
},
{
angle = 270;
pos = (350,563);
},
{
angle = 270;
pos = (280,563);
},
{
angle = 270;
pos = (210,563);
},
{
angle = 270;
pos = (70,563);
},
{
angle = 270;
pos = (0,563);
},
{
angle = 270;
pos = (560,555);
},

glyphs = (
{
glyphname = a;
lastChange = "2023-06-07 07:46:48 +0000";
layers = (
{
layerId = m01;
shapes = (
{
closed = 1;
nodes = (
(420,52,o),
(316,23,o),
(247,23,cs),
(168,23,o),
(101,52,o),
(96,140,c),
(235,201,o),
(377,295,o),
(464,351,c),
(446,364,l),
(350,295,o),
(164,209,o),
(11,150,c),
(11,50,o),
(92,-8,o),
(224,-8,cs),
(357,-8,o),
(490,65,o),
(489,173,c),
(420,150,l)
);
},
{
closed = 1;
nodes = (
(420,142,l),
(490,168,l),
(490,315,ls),
(490,395,o),
(506,509,o),
(339,509,cs),
(201,509,o),
(92,435,o),
(40,391,c),
(67,384,l),
(125,428,o),
(191,452,o),
(292,452,cs),
(416,455,o),
(421,385,o),
(420,356,cs)
);
},
{
closed = 0;
nodes = (
(335,449,l)
);
},
{
closed = 1;
nodes = (
(490,14,l),
(490,245,l),
(464,245,l),
(449,159,o),
(420,74,o),
(420,-12,c)
);
}
);
width = 560;
}
);
unicode = 97;
},
{
glyphname = b;
lastChange = "2023-06-15 03:13:52 +0000";
layers = (
{
layerId = m01;
shapes = (
{
closed = 1;
nodes = (
(70,231,l),
(140,260,l),
(140,819,l),
(70,793,l)
);
},
{
closed = 1;
nodes = (
(457,455,o),
(562,361,o),
(561,239,cs),
(561,100,o),
(483,21,o),
(364,21,cs),
(251,21,o),
(141,132,o),
(140,262,c),
(71,239,l),
(71,90,o),
(170,-9,o),
(341,-9,cs),
(514,-9,o),
(630,118,o),
(630,262,cs),
(630,385,o),
(531,511,o),
(365,511,c),
(204,511,o),
(74,361,o),
(76,362,c),
(104,362,l),
(169,421,o),
(240,455,o),
(359,455,cs)
);
},
{
closed = 1;
nodes = (
(140,14,l),
(140,78,o),
(115,143,o),
(103,207,c),
(70,252,l),
(70,-12,l)
);
},
{
closed = 1;
nodes = (
(70,-12,l),
(140,14,l)
);
},
{
closed = 1;
nodes = (
(140,14,l),
(103,207,l),
(70,252,l),
(70,-12,l)
);
}
);
width = 700;
}
);
unicode = 98;
},
{
glyphname = c;
lastChange = "2023-06-07 07:48:25 +0000";
layers = (
{
layerId = m01;
shapes = (
{
closed = 1;
nodes = (
(474,40,o),
(436,21,o),
(365,21,cs),
(252,21,o),
(140,132,o),
(139,262,cs),
(140,402,o),
(220,481,o),
(342,481,cs),
(389,480,o),
(443,457,o),
(494,405,c),
(560,431,l),
(522,470,o),
(461,511,o),
(365,511,cs),
(213,511,o),
(70,397,o),
(70,239,cs),
(70,90,o),
(171,-10,o),
(342,-9,cs),
(417,-10,o),
(509,35,o),
(554,86,c),
(517,89,l)
);
}
);
width = 560;
}
);
unicode = 99;
},
{
glyphname = d;
lastChange = "2023-06-15 03:13:33 +0000";
layers = (
{
layerId = m01;
shapes = (
{
closed = 1;
nodes = (
(436,481,o),
(505,408,o),
(560,325,c),
(560,236,ls),
(560,99,o),
(481,21,o),
(363,21,cs),
(250,21,o),
(140,132,o),
(139,262,cs),
(138,402,o),
(246,481,o),
(346,481,cs)
);
},
{
closed = 1;
nodes = (
(70,90,o),
(169,-9,o),
(340,-9,cs),
(503,-9,o),
(616,103,o),
(629,236,c),
(630,236,l),
(630,819,l),
(560,793,l),
(560,438,l),
(513,472,o),
(435,511,o),
(350,511,cs),
(191,511,o),
(70,379,o),
(70,239,cs)
);
},
{
closed = 1;
nodes = (
(630,14,l),
(630,245,l),
(604,245,l),
(589,159,o),
(560,74,o),
(560,-12,c)
);
}
);
width = 700;
}
);
unicode = 100;
},
{
glyphname = e;
lastChange = "2023-06-07 07:49:59 +0000";
layers = (
{
layerId = m01;
shapes = (
{
closed = 1;
nodes = (
(265,218,o),
(457,290,o),
(560,382,c),
(532,457,o),
(462,512,o),
(340,511,cs),
(188,511,o),
(48,371,o),
(47,239,cs),
(48,90,o),
(146,-10,o),
(317,-9,cs),
(376,-9,o),
(454,21,o),
(498,58,c),
(472,67,l),
(431,33,o),
(402,22,o),
(340,21,cs),
(227,21,o),
(117,132,o),
(116,262,cs),
(117,402,o),
(195,481,o),
(317,481,cs),
(369,481,o),
(429,451,o),
(457,371,c),
(364,292,o),
(251,236,o),
(119,198,c),
(116,175,l)
);
}
);
width = 560;
}
);
unicode = 101;
},
{
glyphname = f;
lastChange = "2023-06-15 02:52:46 +0000";
layers = (
{
layerId = m01;
shapes = (
{
closed = 1;
nodes = (
(210,735,o),
(208,763,o),
(280,796,c),
(280,819,l),
(282,820,o),
(273,817,o),
(273,817,c),
(186,783,o),
(140,769,o),
(140,639,c),
(140,-12,l),
(210,14,l),
(210,639,l)
);
},
{
closed = 1;
nodes = (
(420,500,l),
(351,493,l),
(224,476,o),
(152,444,o),
(77,389,c),
(77,389,o),
(68,383,o),
(70,384,c),
(89,372,l),
(89,372,o),
(94,375,o),
(97,377,cs),
(155,417,o),
(233,421,o),
(351,431,c)
);
}
);
width = 350;
}
);
unicode = 102;
},
{
glyphname = g;
lastChange = "2023-06-15 03:24:51 +0000";
layers = (
{
layerId = m01;
shapes = (
{
closed = 1;
nodes = (
(288,20,o),
(144,118,o),
(144,263,cs),
(144,404,o),
(218,478,o),
(336,478,cs),
(445,478,o),
(556,366,o),
(556,236,cs),
(556,93,o),
(429,63,o),
(280,-101,c),
(280,-101,o),
(290,-125,o),
(290,-125,c),
(374,-62,o),
(489,-33,o),
(489,-263,c),
(490,-319,l),
(560,-293,l),
(559,-236,l),
(558,-106,o),
(460,-9,o),
(337,-76,c),
(452,16,o),
(630,69,o),
(630,259,c),
(630,408,o),
(506,511,o),
(363,511,cs),
(210,511,o),
(70,385,o),
(70,236,cs),
(70,87,o),
(183,-13,o),
(378,-12,c),
(420,20,l)
);
},
{
closed = 1;
nodes = (
(560,486,l),
(560,255,l),
(586,255,l),
(602,348,o),
(630,429,o),
(630,512,c)
);
}
);
width = 700;
}
);
unicode = 103;
},
{
glyphname = h;
lastChange = "2023-06-15 03:21:40 +0000";
layers = (
{
layerId = m01;
shapes = (
{
closed = 1;
nodes = (
(70,231,l),
(140,260,l),
(140,819,l),
(70,793,l)
);
},
{
closed = 1;
nodes = (
(81,310,o),
(70,305,o),
(70,273,c),
(70,256,o),
(70,338,o),
(70,-12,c),
(140,14,l),
(140,349,l),
(217,430,o),
(505,516,o),
(500,343,c),
(497,225,o),
(490,106,o),
(490,-12,c),
(560,14,l),
(560,366,l),
(560,638,o),
(197,472,o),
(113,355,c)
);
}
);
width = 630;
}
);
unicode = 104;
},
{
glyphname = i;
lastChange = "2023-06-07 05:37:35 +0000";
layers = (
{
guides = (
{
pos = (119,358);
}
);
layerId = m01;
shapes = (
{
closed = 1;
nodes = (
(140,14,l),
(140,224,o),
(132,283,o),
(126,358,c),
(70,358,l),
(70,-12,l)
);
},
{
closed = 1;
nodes = (
(70,486,l),
(70,358,l),
(126,358,l),
(131,409,o),
(140,461,o),
(140,512,c)
);
}
);
width = 210;
}
);
unicode = 105;
},
{
glyphname = j;
lastChange = "2023-06-15 03:23:51 +0000";
layers = (
{
layerId = m01;
shapes = (
{
closed = 1;
nodes = (
(70,-141,o),
(82,-141,o),
(96,-141,cs),
(102,-141,o),
(107,-141,o),
(113,-141,cs),
(127,-141,o),
(140,-141,o),
(140,-141,c),
(140,25,l),
(70,-1,l),
(70,-141,l)
);
},
{
closed = 1;
nodes = (
(70,-237,o),
(72,-265,o),
(8,-293,c),
(0,-297,l),
(0,-319,l),
(7,-316,l),
(94,-282,o),
(140,-271,o),
(140,-141,c),
(70,-141,l)
);
},
{
closed = 1;
nodes = (
(140,14,l),
(140,224,o),
(132,283,o),
(126,358,c),
(70,358,l),
(70,-12,l)
);
},
{
closed = 1;
nodes = (
(70,486,l),
(70,358,l),
(126,358,l),
(131,409,o),
(140,461,o),
(140,512,c)
);
}
);
width = 210;
}
);
unicode = 106;
},
{
glyphname = k;
lastChange = "2023-06-15 02:51:28 +0000";
layers = (
{
layerId = m01;
shapes = (
{
closed = 1;
nodes = (
(140,260,l),
(140,317,l),
(140,819,l),
(70,793,l),
(70,-12,l),
(140,14,l)
);
},
{
closed = 1;
nodes = (
(490,512,l),
(434,484,o),
(210,363,o),
(129,256,c),
(129,256,o),
(139,232,o),
(139,232,c),
(286,342,o),
(405,151,o),
(490,-12,c),
(560,14,l),
(474,162,o),
(329,360,o),
(186,281,c),
(227,314,o),
(435,419,o),
(490,437,c)
);
}
);
width = 560;
}
);
unicode = 107;
},
{
glyphname = l;
lastChange = "2023-06-15 03:14:07 +0000";
layers = (
{
layerId = m01;
shapes = (
{
closed = 1;
nodes = (
(70,-12,l),
(140,14,l),
(140,819,l),
(70,793,l)
);
}
);
width = 210;
}
);
unicode = 108;
},
{
glyphname = m;
lastChange = "2023-06-07 08:04:58 +0000";
layers = (
{
guides = (
{
pos = (119,358);
}
);
layerId = m01;
shapes = (
{
closed = 1;
nodes = (
(140,14,o),
(140,373,o),
(140,373,c),
(70,324,l),
(70,-12,l),
(140,14,l)
);
},
{
closed = 1;
nodes = (
(445,500,l),
(299,500,o),
(220,432,o),
(128,364,c),
(125,361,o),
(119,358,o),
(121,359,c),
(119,320,ls),
(119,315,o),
(128,338,o),
(148,352,cs),
(217,400,o),
(286,435,o),
(388,435,c),
(384,286,o),
(375,137,o),
(375,-12,c),
(445,14,l)
);
},
{
closed = 1;
nodes = (
(770,502,l),
(624,502,o),
(538,429,o),
(446,361,c),
(443,358,o),
(437,355,o),
(439,356,c),
(437,324,ls),
(437,319,o),
(453,340,o),
(473,354,cs),
(543,403,o),
(611,437,o),
(713,437,c),
(709,287,o),
(700,138,o),
(700,-12,c),
(770,14,l)
);
},
{
closed = 1;
nodes = (
(70,305,l),
(103,262,l),
(116,345,o),
(141,429,o),
(141,512,c),
(71,486,l)
);
}
);
width = 840;
}
);
unicode = 109;
},
{
glyphname = n;
lastChange = "2023-06-07 08:06:13 +0000";
layers = (
{
layerId = m01;
shapes = (
{
closed = 1;
nodes = (
(140,14,o),
(140,373,o),
(140,373,c),
(70,324,l),
(70,-12,l),
(140,14,l)
);
},
{
closed = 1;
nodes = (
(560,500,l),
(335,500,o),
(195,432,o),
(103,364,c),
(100,361,o),
(94,358,o),
(96,359,c),
(115,347,l),
(116,352,o),
(120,350,o),
(123,352,cs),
(195,401,o),
(363,435,o),
(503,435,c),
(499,286,o),
(494,137,o),
(490,-12,c),
(560,14,l)
);
},
{
closed = 1;
nodes = (
(70,307,l),
(102,264,l),
(115,347,o),
(140,429,o),
(140,512,c),
(70,486,l)
);
}
);
width = 630;
}
);
unicode = 110;
},
{
glyphname = o;
lastChange = "2023-06-07 07:53:14 +0000";
layers = (
{
layerId = m01;
shapes = (
{
closed = 1;
nodes = (
(478,-9,o),
(595,118,o),
(595,262,cs),
(595,385,o),
(495,511,o),
(328,511,cs),
(176,511,o),
(35,385,o),
(35,239,cs),
(35,90,o),
(134,-9,o),
(305,-9,cs)
);
},
{
closed = 1;
nodes = (
(215,21,o),
(105,132,o),
(104,262,cs),
(103,402,o),
(205,481,o),
(305,481,cs),
(425,481,o),
(526,370,o),
(525,239,cs),
(525,100,o),
(447,21,o),
(328,21,cs)
);
}
);
width = 630;
}
);
unicode = 111;
},
{
glyphname = p;
lastChange = "2023-06-15 03:23:33 +0000";
layers = (
{
layerId = m01;
shapes = (
{
closed = 1;
nodes = (
(70,-319,l),
(140,-293,l),
(140,397,l),
(70,397,l)
);
},
{
closed = 1;
nodes = (
(457,455,o),
(562,361,o),
(561,239,cs),
(561,100,o),
(483,21,o),
(364,21,cs),
(251,21,o),
(141,132,o),
(140,262,c),
(71,239,l),
(71,90,o),
(170,-9,o),
(341,-9,cs),
(514,-9,o),
(630,118,o),
(630,262,cs),
(630,385,o),
(531,511,o),
(365,511,c),
(204,511,o),
(74,361,o),
(76,362,c),
(104,362,l),
(169,421,o),
(240,455,o),
(359,455,cs)
);
},
{
closed = 1;
nodes = (
(70,486,l),
(70,255,l),
(96,255,l),
(111,341,o),
(140,422,o),
(140,512,c)
);
}
);
width = 630;
}
);
unicode = 112;
},
{
glyphname = q;
lastChange = "2023-06-15 03:23:15 +0000";
layers = (
{
layerId = m01;
shapes = (
{
closed = 1;
nodes = (
(560,-319,l),
(630,-293,l),
(630,389,l),
(560,389,l)
);
},
{
closed = 1;
nodes = (
(560,486,l),
(560,422,o),
(585,357,o),
(597,293,c),
(630,248,l),
(630,512,l)
);
},
{
closed = 1;
nodes = (
(446,481,o),
(520,392,o),
(577,298,c),
(606,393,ls),
(610,405,o),
(490,511,o),
(350,511,c),
(191,511,o),
(70,379,o),
(70,239,cs),
(70,90,o),
(169,-9,o),
(340,-9,cs),
(503,-9,o),
(616,103,o),
(629,236,c),
(597,236,l),
(560,236,l),
(560,90,o),
(472,21,o),
(363,21,c),
(250,21,o),
(140,132,o),
(139,262,cs),
(138,402,o),
(246,481,o),
(346,481,cs)
);
}
);
width = 700;
}
);
unicode = 113;
},
{
glyphname = r;
lastChange = "2023-06-07 07:57:43 +0000";
layers = (
{
layerId = m01;
shapes = (
{
closed = 1;
nodes = (
(140,14,o),
(140,373,o),
(140,373,c),
(70,324,l),
(70,-12,l),
(140,14,l)
);
},
{
closed = 1;
nodes = (
(490,500,l),
(421,493,l),
(244,475,o),
(178,419,o),
(103,364,c),
(100,361,o),
(94,358,o),
(96,359,c),
(115,347,l),
(116,352,o),
(120,350,o),
(123,352,cs),
(181,392,o),
(303,421,o),
(421,431,c)
);
},
{
closed = 1;
nodes = (
(70,307,l),
(103,264,l),
(116,347,o),
(141,429,o),
(141,512,c),
(71,486,l)
);
}
);
width = 420;
}
);
unicode = 114;
},
{
glyphname = s;
lastChange = "2023-06-06 09:04:36 +0000";
layers = (
{
layerId = m01;
shapes = (
{
closed = 1;
nodes = (
(396,490,o),
(290,516,o),
(217,508,cs),
(143,500,o),
(30,455,o),
(39,358,c),
(52,240,o),
(364,222,o),
(375,118,c),
(380,69,o),
(317,38,o),
(259,31,cs),
(175,21,o),
(102,42,o),
(77,72,c),
(51,65,l),
(76,20,o),
(171,-19,o),
(285,-9,cs),
(399,1,o),
(453,63,o),
(445,138,c),
(431,273,o),
(128,291,o),
(119,382,c),
(112,442,o),
(158,482,o),
(222,490,c),
(293,496,o),
(358,457,o),
(390,407,c),
(460,433,l)
);
}
);
width = 490;
}
);
unicode = 115;
},
{
glyphname = t;
lastChange = "2023-06-15 02:51:40 +0000";
layers = (
{
layerId = m01;
shapes = (
{
closed = 1;
nodes = (
(140,-12,l),
(210,14,l),
(210,632,l),
(140,606,l)
);
},
{
closed = 1;
nodes = (
(350,500,l),
(281,493,l),
(154,476,o),
(82,444,o),
(7,389,c),
(7,389,o),
(-2,383,o),
(0,384,c),
(19,372,l),
(19,372,o),
(24,375,o),
(27,377,cs),
(85,417,o),
(163,421,o),
(281,431,c)
);
}
);
width = 350;
}
);
unicode = 116;
},
{
glyphname = u;
lastChange = "2023-06-07 07:43:04 +0000";
layers = (
{
layerId = m01;
shapes = (
{
closed = 1;
nodes = (
(560,229,l),
(528,234,l),
(515,151,o),
(490,71,o),
(490,-12,c),
(560,14,l)
);
},
{
closed = 1;
nodes = (
(549,190,o),
(560,195,o),
(560,227,c),
(560,244,o),
(560,162,o),
(560,512,c),
(490,486,l),
(491,205,o),
(491,158,o),
(491,151,c),
(414,70,o),
(126,-16,o),
(130,157,c),
(140,512,l),
(70,489,l),
(70,134,l),
(70,-138,o),
(433,28,o),
(517,145,c)
);
}
);
width = 630;
}
);
unicode = 117;
},
{
glyphname = v;
lastChange = "2023-06-07 08:00:22 +0000";
layers = (
{
layerId = m01;
shapes = (
{
closed = 1;
nodes = (
(237,-11,l),
(378,148,o),
(462,390,o),
(479,504,c),
(480,512,l),
(459,507,l),
(457,498,l),
(440,412,o),
(321,203,o),
(222,104,c),
(70,512,l),
(0,486,l)
);
}
);
width = 490;
}
);
unicode = 118;
},
{
glyphname = w;
lastChange = "2023-06-07 07:51:41 +0000";
layers = (
{
layerId = m01;
shapes = (
{
closed = 1;
nodes = (
(770,227,l),
(737,270,l),
(724,176,o),
(699,82,o),
(699,-12,c),
(769,14,l)
);
},
{
closed = 1;
nodes = (
(759,190,o),
(770,195,o),
(770,227,c),
(770,244,o),
(770,162,o),
(770,512,c),
(700,486,l),
(701,205,o),
(701,158,o),
(701,151,c),
(624,70,o),
(441,-16,o),
(445,157,c),
(448,265,o),
(454,372,o),
(454,480,c),
(385,457,l),
(385,134,l),
(385,-138,o),
(643,28,o),
(727,145,c)
);
},
{
closed = 1;
nodes = (
(444,191,o),
(445,162,o),
(455,512,c),
(385,486,l),
(386,205,o),
(386,159,o),
(386,152,c),
(309,71,o),
(126,-15,o),
(130,158,c),
(135,276,o),
(140,395,o),
(140,512,c),
(70,486,l),
(70,135,l),
(70,-137,o),
(328,29,o),
(412,146,c)
);
}
);
width = 840;
}
);
unicode = 119;
},
{
glyphname = x;
lastChange = "2023-06-07 07:59:40 +0000";
layers = (
{
layerId = m01;
shapes = (
{
closed = 1;
nodes = (
(490,14,l),
(70,512,l),
(0,486,l),
(420,-12,l)
);
},
{
closed = 1;
nodes = (
(420,500,l),
(226,323,l),
(245,305,l),
(327,357,o),
(408,417,o),
(490,500,c)
);
},
{
closed = 1;
nodes = (
(70,0,l),
(264,177,l),
(245,195,l),
(163,143,o),
(82,83,o),
(0,0,c)
);
}
);
width = 490;
}
);
unicode = 120;
},
{
glyphname = y;
lastChange = "2023-06-15 03:22:53 +0000";
layers = (
{
guides = (
{
pos = (490,-319);
}
);
layerId = m01;
shapes = (
{
closed = 1;
nodes = (
(490,-319,l),
(560,-293,l),
(560,344,l),
(490,344,l)
);
},
{
closed = 1;
nodes = (
(490,486,l),
(490,250,l),
(560,250,l),
(560,512,l)
);
},
{
closed = 1;
nodes = (
(549,190,o),
(560,195,o),
(560,227,c),
(560,244,o),
(560,162,o),
(560,512,c),
(490,486,l),
(491,205,o),
(491,158,o),
(491,151,c),
(414,70,o),
(125,-16,o),
(130,157,c),
(133,275,o),
(140,394,o),
(140,512,c),
(70,486,l),
(70,134,l),
(70,-138,o),
(433,28,o),
(517,145,c)
);
}
);
width = 630;
}
);
unicode = 121;
},
{
glyphname = z;
lastChange = "2023-06-07 07:51:23 +0000";
layers = (
{
layerId = m01;
shapes = (
{
closed = 1;
nodes = (
(85,32,l),
(221,139,o),
(381,322,o),
(445,500,c),
(82,500,l),
(13,431,l),
(353,468,l),
(264,261,o),
(114,105,o),
(0,0,c),
(420,0,l),
(431,70,l)
);
}
);
width = 490;
}
);
unicode = 122;
},
{
glyphname = a.001;
layers = (
{
layerId = m01;
shapes = (
{
closed = 1;
nodes = (
(490,52,o),
(386,23,o),
(317,23,cs),
(238,23,o),
(179,57,o),
(174,145,c),
(313,206,o),
(447,295,o),
(534,351,c),
(516,364,l),
(420,295,o),
(223,204,o),
(70,145,c),
(66,32,o),
(162,-8,o),
(294,-8,cs),
(427,-8,o),
(560,65,o),
(559,173,c),
(490,150,l)
);
},
{
closed = 1;
nodes = (
(87,358,o),
(87,350,o),
(87,350,c),
(368,382,l),
(351,396,l),
(181,396,l),
(196,437,o),
(275,486,o),
(367,486,cs),
(447,486,o),
(486,443,o),
(487,346,cs),
(490,-12,l),
(560,14,l),
(560,315,ls),
(560,473,o),
(472,510,o),
(355,510,cs),
(266,510,o),
(165,485,o),
(107,393,c)
);
}
);
width = 630;
}
);
},
{
glyphname = a.002;
layers = (
{
layerId = m01;
shapes = (
{
closed = 1;
nodes = (
(490,52,o),
(386,23,o),
(317,23,cs),
(238,23,o),
(179,57,o),
(174,145,c),
(313,206,o),
(447,295,o),
(534,351,c),
(516,364,l),
(420,295,o),
(223,204,o),
(70,145,c),
(66,32,o),
(162,-8,o),
(294,-8,cs),
(427,-8,o),
(560,65,o),
(559,173,c),
(490,150,l)
);
},
{
closed = 1;
nodes = (
(490,-11,l),
(560,15,l),
(560,315,ls),
(560,320,o),
(490,364,o),
(490,356,cs)
);
},
{
closed = 0;
nodes = (
(490,449,l)
);
},
{
closed = 1;
nodes = (
(490,401,o),
(490,369,o),
(490,356,c),
(560,315,l),
(560,370,o),
(560,397,o),
(560,500,c),
(370,526,o),
(173,424,o),
(86,364,c),
(83,361,o),
(77,358,o),
(79,359,c),
(98,347,l),
(99,352,o),
(103,350,o),
(106,352,cs),
(178,401,o),
(350,449,o),
(490,449,c)
);
}
);
width = 630;
}
);
},
{
glyphname = d.001;
layers = (
{
layerId = m01;
shapes = (
{
closed = 1;
nodes = (
(560,3301,ls),
(560,2939,o),
(560,2433,o),
(560,2407,cs),
(560,-12,l),
(630,11,l),
(629,2429,ls),
(629,2479,o),
(629,2962,o),
(629,3324,cs),
(629,3661,l),
(560,3638,l)
);
},
{
closed = 1;
nodes = (
(139,509,o),
(451,447,o),
(560,447,c),
(560,446,l),
(617,511,l),
(617,512,l),
(365,512,o),
(70,481,o),
(70,239,cs),
(70,117,o),
(169,-9,o),
(340,-9,cs),
(513,-9,o),
(630,131,o),
(629,262,c),
(560,262,l),
(560,123,o),
(482,21,o),
(363,21,cs),
(250,21,o),
(139,119,o),
(139,276,c)
);
}
);
width = 700;
}
);
},
{
glyphname = d.002;
lastChange = "2023-06-05 07:58:16 +0000";
layers = (
{
layerId = m01;
shapes = (
{
closed = 1;
nodes = (
(560,3301,ls),
(560,2939,o),
(560,2433,o),
(560,2407,cs),
(560,209,l),
(630,232,l),
(629,2429,ls),
(629,2479,o),
(629,2962,o),
(629,3324,cs),
(629,3661,l),
(560,3638,l)
);
},
{
closed = 1;
nodes = (
(620,374,o),
(524,511,o),
(363,511,c),
(200,511,o),
(70,385,o),
(70,239,cs),
(70,90,o),
(169,-9,o),
(340,-9,cs),
(501,-9,o),
(613,101,o),
(628,232,c),
(560,232,l),
(560,176,o),
(490,21,o),
(336,21,cs),
(223,21,o),
(139,77,o),
(139,207,cs),
(139,377,o),
(285,466,o),
(385,466,cs),
(467,466,o),
(519,442,o),
(580,378,c),
(608,378,l)
);
},
{
closed = 1;
nodes = (
(630,257,l),
(597,236,l),
(560,-12,l),
(630,17,l)
);
}
);
width = 700;
}
);
},
{
glyphname = i.001;
layers = (
{
layerId = m01;
shapes = (
{
closed = 1;
nodes = (
(70,370,l),
(70,-12,l),
(140,14,l),
(140,393,l)
);
},
{
closed = 1;
nodes = (
(70,486,l),
(70,250,l),
(140,250,l),
(140,512,l)
);
}
);
width = 210;
}
);
},
{
glyphname = k.001;
layers = (
{
layerId = m01;
shapes = (
{
closed = 1;
nodes = (
(140,17,o),
(140,373,o),
(140,373,c),
(70,324,l),
(70,142,o),
(70,-12,o),
(70,-9,c),
(140,17,l)
);
},
{
closed = 1;
nodes = (
(70,305,l),
(103,262,l),
(140,510,l),
(70,481,l)
);
},
{
closed = 1;
nodes = (
(70,2426,l),
(70,231,l),
(140,260,l),
(140,2449,ls),
(140,2513,o),
(139,3297,o),
(140,3512,c),
(70,3512,l)
);
},
{
closed = 1;
nodes = (
(70,3654,l),
(70,3418,l),
(140,3418,l),
(140,3680,l)
);
},
{
closed = 1;
nodes = (
(560,85,l),
(173,341,l),
(131,315,l),
(560,-13,l)
);
},
{
closed = 1;
nodes = (
(561,500,o),
(457,500,o),
(457,500,c),
(318,439,o),
(184,350,o),
(97,294,c),
(115,281,l),
(211,350,o),
(408,441,o),
(561,500,c)
);
}
);
width = 630;
}
);
},
{
color = 11;
glyphname = b.ss01;
lastChange = "2023-06-15 02:42:34 +0000";
layers = (
{
layerId = m01;
shapes = (
{
closed = 1;
nodes = (
(70,231,l),
(140,260,l),
(140,2449,ls),
(140,2506,o),
(139,3127,o),
(140,3418,cs),
(140,3681,l),
(70,3655,l)
);
},
{
closed = 1;
nodes = (
(457,455,o),
(562,361,o),
(561,239,cs),
(561,100,o),
(483,21,o),
(364,21,cs),
(251,21,o),
(141,132,o),
(140,262,c),
(71,239,l),
(71,90,o),
(170,-9,o),
(341,-9,cs),
(514,-9,o),
(630,118,o),
(630,262,cs),
(630,385,o),
(531,511,o),
(365,511,c),
(204,511,o),
(74,361,o),
(76,362,c),
(104,362,l),
(169,421,o),
(240,455,o),
(359,455,cs)
);
},
{
closed = 1;
nodes = (
(140,14,l),
(140,78,o),
(115,143,o),
(103,207,c),
(70,252,l),
(70,-12,l)
);
},
{
closed = 1;
nodes = (
(70,-12,l),
(140,14,l)
);
},
{
closed = 1;
nodes = (
(140,14,l),
(103,207,l),
(70,252,l),
(70,-12,l)
);
}
);
width = 700;
}
);
},
{
color = 11;
glyphname = d.ss01;
lastChange = "2023-06-15 02:42:34 +0000";
layers = (
{
layerId = m01;
shapes = (
{
closed = 1;
nodes = (
(436,481,o),
(505,408,o),
(560,325,c),
(560,236,ls),
(560,99,o),
(481,21,o),
(363,21,cs),
(250,21,o),
(140,132,o),
(139,262,cs),
(138,402,o),
(246,481,o),
(346,481,cs)
);
},
{
closed = 1;
nodes = (
(70,90,o),
(169,-9,o),
(340,-9,cs),
(503,-9,o),
(616,103,o),
(629,236,c),
(630,236,l),
(630,3681,l),
(560,3655,l),
(560,3301,l),
(560,2407,l),
(560,438,l),
(513,472,o),
(435,511,o),
(350,511,cs),
(191,511,o),
(70,379,o),
(70,239,cs)
);
},
{
closed = 1;
nodes = (
(630,14,l),
(630,245,l),
(604,245,l),
(589,159,o),
(560,74,o),
(560,-12,c)
);
}
);
width = 700;
}
);
},
{
color = 11;
glyphname = f.ss01;
lastChange = "2023-06-15 02:42:34 +0000";
layers = (
{
layerId = m01;
shapes = (
{
closed = 1;
nodes = (
(210,3597,o),
(208,3625,o),
(280,3658,c),
(280,3681,l),
(282,3682,o),
(273,3679,o),
(273,3679,c),
(186,3645,o),
(140,3631,o),
(140,3501,cs),
(140,2699,l),
(140,-12,l),
(210,14,l),
(210,2429,l),
(210,2721,l),
(210,3501,ls)
);
},
{
closed = 1;
nodes = (
(420,500,l),
(351,493,l),
(224,476,o),
(152,444,o),
(77,389,c),
(77,389,o),
(68,383,o),
(70,384,c),
(89,372,l),
(89,372,o),
(94,375,o),
(97,377,cs),
(155,417,o),
(233,421,o),
(351,431,c)
);
}
);
width = 350;
}
);
},
{
color = 10;
glyphname = g.ss01;
lastChange = "2023-06-15 03:26:14 +0000";
layers = (
{
layerId = m01;
shapes = (
{
closed = 1;
nodes = (
(288,20,o),
(144,118,o),
(144,263,cs),
(144,404,o),
(218,478,o),
(336,478,cs),
(445,478,o),
(556,366,o),
(556,236,cs),
(556,93,o),
(429,63,o),
(280,-101,c),
(280,-101,o),
(290,-125,o),
(290,-125,c),
(374,-62,o),
(490,-44,o),
(490,-413,cs),
(490,-747,l),
(490,-3181,l),
(560,-3155,l),
(561,-720,l),
(560,-386,ls),
(559,-125,o),
(460,-9,o),
(337,-76,c),
(452,16,o),
(630,69,o),
(630,259,c),
(630,408,o),
(506,511,o),
(363,511,cs),
(210,511,o),
(70,385,o),
(70,236,cs),
(70,87,o),
(183,-13,o),
(378,-12,c),
(420,20,l)
);
},
{
closed = 1;
nodes = (
(560,486,l),
(560,255,l),
(586,255,l),
(602,348,o),
(630,429,o),
(630,512,c)
);
}
);
width = 700;
}
);
},
{
color = 11;
glyphname = h.ss01;
lastChange = "2023-06-15 02:42:34 +0000";
layers = (
{
layerId = m01;
shapes = (
{
closed = 1;
nodes = (
(70,231,l),
(140,260,l),
(140,2449,ls),
(140,2506,o),
(140,3127,o),
(140,3418,cs),
(140,3681,l),
(70,3655,l)
);
},
{
closed = 1;
nodes = (
(81,310,o),
(70,305,o),
(70,273,c),
(70,256,o),
(70,338,o),
(70,-12,c),
(140,14,l),
(140,349,l),
(217,430,o),
(505,516,o),
(500,343,c),
(497,225,o),
(490,106,o),
(490,-12,c),
(560,14,l),
(560,366,l),
(560,638,o),
(197,472,o),
(113,355,c)
);
}
);
width = 630;
}
);
},
{
color = 10;
glyphname = j.ss01;
lastChange = "2023-06-15 03:26:14 +0000";
layers = (
{
layerId = m01;
shapes = (
{
closed = 1;
nodes = (
(70,-2999,o),
(82,-2999,o),
(96,-2999,cs),
(102,-2999,o),
(107,-2999,o),
(113,-2999,cs),
(127,-2999,o),
(140,-2999,o),
(140,-2999,cs),
(140,-2999,o),
(140,-2410,o),
(140,-2203,cs),
(140,-1909,l),
(140,25,l),
(70,-1,l),
(70,-1932,ls),
(70,-1950,o),
(70,-2069,o),
(70,-2225,cs),
(70,-2999,ls)
);
},
{
closed = 1;
nodes = (
(70,-3095,o),
(72,-3123,o),
(8,-3151,c),
(0,-3155,l),
(0,-3177,l),
(7,-3174,l),
(94,-3140,o),
(140,-3129,o),
(140,-2999,c),
(70,-2999,l)
);
},
{
closed = 1;
nodes = (
(140,14,l),
(140,224,o),
(132,283,o),
(126,358,c),
(70,358,l),
(70,-12,l)
);
},
{
closed = 1;
nodes = (
(70,486,l),
(70,358,l),
(126,358,l),
(131,409,o),
(140,461,o),
(140,512,c)
);
}
);
width = 210;
}
);
},
{
color = 11;
glyphname = k.ss01;
lastChange = "2023-06-15 02:42:34 +0000";
layers = (
{
layerId = m01;
shapes = (
{
closed = 1;
nodes = (
(140,260,l),
(140,317,l),
(140,2449,ls),
(140,2506,o),
(140,3127,o),
(140,3418,cs),
(140,3681,l),
(70,3655,l),
(70,-12,l),
(140,14,l)
);
},
{
closed = 1;
nodes = (
(490,512,l),
(434,484,o),
(210,363,o),
(129,256,c),
(129,256,o),
(139,232,o),
(139,232,c),
(286,342,o),
(405,151,o),
(490,-12,c),
(560,14,l),
(474,162,o),
(329,360,o),
(186,281,c),
(227,314,o),
(435,419,o),
(490,437,c)
);
}
);
width = 560;
}
);
},
{
color = 11;
glyphname = l.ss01;
lastChange = "2023-06-15 02:42:34 +0000";
layers = (
{
layerId = m01;
shapes = (
{
closed = 1;
nodes = (
(70,-12,l),
(140,14,l),
(140,2446,ls),
(140,2503,o),
(139,3124,o),
(140,3415,cs),
(140,3681,l),
(70,3655,l)
);
}
);
width = 210;
}
);
},
{
color = 10;
glyphname = p.ss01;
lastChange = "2023-06-15 03:26:14 +0000";
layers = (
{
layerId = m01;
shapes = (
{
closed = 1;
nodes = (
(70,-759,l),
(70,-3176,l),
(140,-3150,l),
(140,-737,ls),
(140,-673,o),
(139,184,o),
(140,397,c),
(70,397,l)
);
},
{
closed = 1;
nodes = (
(457,455,o),
(562,361,o),
(561,239,cs),
(561,100,o),
(483,21,o),
(364,21,cs),
(251,21,o),
(141,132,o),
(140,262,c),
(71,239,l),
(71,90,o),
(170,-9,o),
(341,-9,cs),
(514,-9,o),
(630,118,o),
(630,262,cs),
(630,385,o),
(531,511,o),
(365,511,c),
(204,511,o),
(74,361,o),
(76,362,c),
(104,362,l),
(169,421,o),
(240,455,o),
(359,455,cs)
);
},
{
closed = 1;
nodes = (
(70,486,l),
(70,255,l),
(96,255,l),
(111,341,o),
(140,422,o),
(140,512,c)
);
}
);
width = 630;
}
);
},
{
color = 10;
glyphname = q.ss01;
lastChange = "2023-06-15 03:26:14 +0000";
layers = (
{
layerId = m01;
shapes = (
{
closed = 1;
nodes = (
(560,-742,l),
(560,-3181,l),
(630,-3155,l),
(630,-719,ls),
(630,-655,o),
(629,174,o),
(630,389,c),
(560,389,l)
);
},
{
closed = 1;
nodes = (
(560,486,l),
(560,422,o),
(585,357,o),
(597,293,c),
(630,248,l),
(630,512,l)
);
},
{
closed = 1;
nodes = (
(446,481,o),
(520,392,o),
(577,298,c),
(606,393,ls),
(610,405,o),
(490,511,o),
(350,511,c),
(191,511,o),
(70,379,o),
(70,239,cs),
(70,90,o),
(169,-9,o),
(340,-9,cs),
(503,-9,o),
(616,103,o),
(629,236,c),
(597,236,l),
(560,236,l),
(560,90,o),
(472,21,o),
(363,21,c),
(250,21,o),
(140,132,o),
(139,262,cs),
(138,402,o),
(246,481,o),
(346,481,cs)
);
}
);
width = 700;
}
);
},
{
color = 11;
glyphname = t.ss01;
lastChange = "2023-06-15 02:42:34 +0000";
layers = (
{
layerId = m01;
shapes = (
{
closed = 1;
nodes = (
(140,-12,l),
(210,14,l),
(210,2446,ls),
(210,2503,o),
(209,3129,o),
(210,3418,cs),
(210,3681,l),
(140,3655,l)
);
},
{
closed = 1;
nodes = (
(350,500,l),
(281,493,l),
(154,476,o),
(82,444,o),
(7,389,c),
(7,389,o),
(-2,383,o),
(0,384,c),
(19,372,l),
(19,372,o),
(24,375,o),
(27,377,cs),
(85,417,o),
(163,421,o),
(281,431,c)
);
}
);
width = 350;
}
);
},
{
color = 10;
glyphname = y.ss01;
lastChange = "2023-06-15 03:26:14 +0000";
layers = (
{
layerId = m01;
shapes = (
{
closed = 1;
nodes = (
(490,-742,l),
(490,-3181,l),
(560,-3155,l),
(560,-719,ls),
(560,-655,o),
(559,129,o),
(560,344,c),
(490,344,l)
);
},
{
closed = 1;
nodes = (
(490,486,l),
(490,250,l),
(560,250,l),
(560,512,l)
);
},
{
closed = 1;
nodes = (
(549,190,o),
(560,195,o),
(560,227,c),
(560,244,o),
(560,162,o),
(560,512,c),
(490,486,l),
(491,205,o),
(491,158,o),
(491,151,c),
(414,70,o),
(125,-16,o),
(130,157,c),
(133,275,o),
(140,394,o),
(140,512,c),
(70,486,l),
(70,134,l),
(70,-138,o),
(433,28,o),
(517,145,c)
);
}
);
width = 630;
}
);
},
{
glyphname = y.001;
layers = (
{
layerId = m01;
shapes = (
{
closed = 1;
nodes = (
(490,-742,l),
(490,-3177,l),
(560,-3148,l),
(560,-719,ls),
(560,-655,o),
(559,129,o),
(560,344,c),
(490,344,l)
);
},
{
closed = 1;
nodes = (
(70,22,l),
(358,22,o),
(468,182,o),
(527,258,c),
(515,275,l),
(449,205,o),
(267,87,o),
(127,87,c),
(140,512,l),
(71,486,l)
);
},
{
closed = 1;
nodes = (
(490,486,l),
(490,250,l),
(560,250,l),
(560,512,l)
);
}
);
width = 630;
}
);
},
{
glyphname = y.002;
layers = (
{
layerId = m01;
shapes = (
{
closed = 1;
nodes = (
(490,-742,l),
(490,-3177,l),
(560,-3148,l),
(560,-719,ls),
(560,-655,o),
(559,129,o),
(560,344,c),
(490,344,l)
);
},
{
closed = 1;
nodes = (
(490,486,l),
(490,250,l),
(560,250,l),
(560,512,l)
);
},
{
closed = 1;
nodes = (
(549,190,o),
(560,195,o),
(560,227,c),
(560,244,o),
(560,162,o),
(560,512,c),
(490,486,l),
(491,205,o),
(491,158,o),
(491,151,c),
(414,70,o),
(125,-16,o),
(130,157,c),
(140,512,l),
(70,489,l),
(70,134,l),
(70,-138,o),
(433,28,o),
(517,145,c)
);
}
);
width = 630;
}
);
},
{
glyphname = y.003;
lastChange = "2023-06-07 03:57:16 +0000";
layers = (
{
layerId = m01;
shapes = (
{
closed = 1;
nodes = (
(490,-982,l),
(490,-3177,l),
(560,-3151,l),
(560,-961,ls),
(560,-903,o),
(559,-197,o),
(560,-3,c),
(490,-3,l)
);
},
{
closed = 1;
nodes = (
(490,477,l),
(490,131,l),
(560,140,l),
(560,512,l)
);
},
{
closed = 1;
nodes = (
(431,67,o),
(503,108,o),
(546,128,c),
(506,100,o),
(490,75,o),
(490,-3,c),
(560,-3,l),
(560,58,o),
(563,123,o),
(612,147,c),
(612,147,o),
(595,167,o),
(595,167,c),
(467,131,o),
(429,98,o),
(358,77,c),
(251,41,o),
(127,43,o),
(130,157,c),
(140,512,l),
(70,489,l),
(70,134,l),
(70,-59,o),
(252,-32,o),
(388,42,cs)
);
}
);
width = 630;
}
);
},
{
glyphname = y.004;
layers = (
{
layerId = m01;
shapes = (
{
closed = 1;
nodes = (
(490,-742,l),
(490,-3177,l),
(560,-3148,l),
(560,-719,ls),
(560,-655,o),
(559,129,o),
(560,344,c),
(490,344,l)
);
},
{
closed = 1;
nodes = (
(490,486,l),
(490,250,l),
(560,250,l),
(560,512,l)
);
},
{
closed = 1;
nodes = (
(549,190,o),
(560,195,o),
(560,227,c),
(560,244,o),
(560,162,o),
(560,512,c),
(490,486,l),
(491,205,o),
(491,158,o),
(491,151,c),
(414,70,o),
(125,-16,o),
(130,157,c),
(140,512,l),
(70,489,l),
(70,134,l),
(70,-138,o),
(433,28,o),
(517,145,c)
);
}
);
width = 630;
}
);
},
{
glyphname = .notdef;
lastChange = "2023-06-15 03:43:48 +0000";
layers = (
{
layerId = m01;
shapes = (
{
closed = 1;
nodes = (
(70,0,l),
(420,0,l),
(420,500,l),
(70,500,l)
);
}
);
width = 490;
}
);
},
{
glyphname = period;
layers = (
{
layerId = m01;
shapes = (
{
closed = 1;
nodes = (
(179,0,o),
(210,32,o),
(210,71,cs),
(210,109,o),
(179,140,o),
(141,140,cs),
(102,140,o),
(70,109,o),
(70,71,cs),
(70,32,o),
(102,0,o),
(141,0,cs)
);
}
);
width = 280;
}
);
unicode = 46;
},
{
glyphname = quotedbl;
layers = (
{
layerId = m01;
shapes = (
{
closed = 1;
nodes = (
(70,797,l),
(92,655,l),
(118,655,l),
(140,797,l)
);
},
{
closed = 1;
nodes = (
(140,513,l),
(118,655,l),
(92,655,l),
(70,513,l)
);
},
{
closed = 1;
nodes = (
(210,514,l),
(188,656,l),
(162,656,l),
(140,514,l)
);
},
{
closed = 1;
nodes = (
(140,798,l),
(162,656,l),
(188,656,l),
(210,798,l)
);
}
);
width = 280;
}
);
unicode = 34;
},
{
glyphname = ampersand;
layers = (
{
layerId = m01;
shapes = (
{
closed = 1;
nodes = (
(565,17,o),
(430,322,o),
(430,322,c),
(370,283,l),
(444,116,o),
(513,-38,o),
(512,-35,c),
(565,17,l)
);
},
{
closed = 1;
nodes = (
(340,279,l),
(329,306,o),
(323,335,o),
(323,365,cs),
(324,505,o),
(402,584,o),
(524,584,cs),
(576,584,o),
(636,554,o),
(664,474,c),
(571,395,o),
(382,312,o),
(255,258,c),
(262,240,l),
(410,296,o),
(662,393,o),
(765,485,c),
(737,560,o),
(669,615,o),
(547,614,cs),
(395,614,o),
(255,474,o),
(254,342,cs),
(254,309,o),
(259,277,o),
(269,250,c)
);
},
{
closed = 1;
nodes = (
(255,258,l),
(171,226,o),
(97,199,o),
(53,187,c),
(5,170,l),
(37,71,o),
(135,-10,o),
(275,-9,cs),
(335,-10,o),
(412,21,o),
(456,58,c),
(445,81,l),
(441,76,o),
(437,73,o),
(430,67,c),
(388,33,o),
(337,22,o),
(298,22,cs),
(215,22,o),
(129,85,o),
(93,177,c),
(138,192,o),
(197,214,o),
(262,240,c)
);
}
);
width = 770;
}
);
unicode = 38;
},
{
glyphname = sharp_corner;
layers = (
{
layerId = m01;
shapes = (
{
closed = 1;
nodes = (
(560,500,l),
(317,500,o),
(195,432,o),
(103,364,c),
(100,361,o),
(94,358,o),
(96,359,c),
(115,347,l),
(116,352,o),
(120,350,o),
(123,352,cs),
(195,401,o),
(363,435,o),
(503,435,c),
(490,-10,l),
(560,16,l)
);
}
);
width = 630;
}
);
},
{
glyphname = spur;
layers = (
{
layerId = m01;
shapes = (
{
closed = 1;
nodes = (
(560,250,l),
(630,250,l),
(630,481,l),
(560,510,l)
);
}
);
width = 700;
}
);
},
{
glyphname = spur2;
layers = (
{
layerId = m01;
shapes = (
{
closed = 1;
nodes = (
(604,250,l),
(630,250,l),
(630,481,l),
(560,510,l)
);
}
);
width = 700;
}
);
},
{
glyphname = spur3;
layers = (
{
layerId = m01;
shapes = (
{
closed = 1;
nodes = (
(560,482,l),
(560,250,l),
(586,250,l),
(630,508,l)
);
}
